<?xml version="1.0" standalone="no"?>
<!DOCTYPE svg PUBLIC "-//W3C//DTD SVG 20010904//EN"
 "http://www.w3.org/TR/2001/REC-SVG-20010904/DTD/svg10.dtd">
<svg version="1.0" xmlns="http://www.w3.org/2000/svg"
 width="1080.000000pt" height="1080.000000pt" viewBox="0 0 1080.000000 1080.000000"
 preserveAspectRatio="xMidYMid meet">

<g transform="translate(0.000000,1080.000000) scale(0.100000,-0.100000)"
fill="#000000" stroke="none">
<path d="M2275 10499 c-126 -13 -363 -56 -380 -69 -5 -5 -28 -11 -50 -15 -22
-4 -44 -11 -50 -15 -5 -4 -26 -13 -45 -18 -133 -40 -326 -135 -485 -240 -218
-144 -463 -389 -607 -607 -105 -159 -200 -352 -240 -485 -5 -19 -14 -39 -18
-45 -4 -5 -11 -28 -15 -50 -4 -22 -10 -44 -15 -50 -8 -10 -21 -69 -46 -215
-85 -485 6 -1018 243 -1427 24 -41 43 -76 43 -78 0 -8 88 -133 144 -205 94
-121 240 -269 365 -370 51 -40 222 -156 272 -184 116 -63 161 -85 214 -106 33
-13 64 -28 69 -32 6 -4 17 -8 25 -8 9 0 28 -6 43 -14 15 -8 41 -17 59 -21 19
-4 40 -11 49 -16 21 -12 187 -48 315 -69 70 -12 572 -29 853 -30 l192 0 0
-730 0 -730 -192 0 c-281 -1 -783 -18 -853 -30 -128 -21 -294 -57 -315 -69 -9
-5 -30 -12 -49 -16 -18 -4 -44 -13 -59 -21 -15 -8 -34 -14 -43 -14 -8 0 -19
-4 -25 -8 -5 -4 -36 -19 -69 -32 -53 -21 -98 -43 -214 -106 -50 -28 -221 -144
-272 -184 -125 -101 -271 -249 -365 -370 -56 -72 -144 -197 -144 -205 0 -2
-19 -37 -42 -78 -201 -345 -302 -793 -270 -1198 13 -171 54 -421 72 -444 5 -5
11 -28 15 -50 4 -22 11 -44 15 -50 4 -5 13 -26 18 -45 40 -133 135 -326 240
-485 144 -218 389 -463 607 -607 159 -105 352 -200 485 -240 19 -5 40 -14 45
-18 6 -4 28 -11 50 -15 22 -4 45 -10 50 -15 10 -8 69 -21 215 -46 485 -85
1018 6 1427 243 41 24 76 43 78 43 8 0 133 88 205 144 121 94 269 240 370 365
40 51 156 222 184 272 63 116 85 161 106 214 13 33 28 64 32 69 4 6 8 17 8 25
0 9 6 28 14 43 8 15 17 41 21 59 4 19 11 40 16 49 12 21 48 187 69 315 12 70
29 572 30 853 l0 192 730 0 730 0 0 -192 c1 -281 18 -783 30 -853 21 -128 57
-294 69 -315 5 -9 12 -30 16 -49 4 -18 13 -44 21 -59 8 -15 14 -34 14 -43 0
-8 4 -19 8 -25 4 -5 19 -36 32 -69 21 -53 43 -98 106 -214 28 -50 144 -221
184 -272 101 -125 249 -271 370 -365 72 -56 197 -144 205 -144 2 0 37 -19 78
-42 345 -201 793 -302 1198 -270 171 13 421 54 444 72 6 5 28 11 50 15 22 4
45 11 50 15 6 4 26 13 45 18 133 40 326 135 485 240 218 144 463 389 607 607
105 159 200 352 240 485 5 19 14 40 18 45 4 6 11 28 15 50 4 22 10 45 15 50 8
10 21 69 46 215 85 485 -6 1018 -244 1427 -23 41 -42 76 -42 78 0 8 -88 133
-144 205 -94 121 -240 269 -365 370 -51 40 -222 156 -272 184 -116 63 -161 85
-214 106 -33 13 -64 28 -69 32 -6 4 -17 8 -25 8 -9 0 -28 6 -43 14 -15 8 -41
17 -59 21 -19 4 -40 11 -49 16 -21 12 -187 48 -315 69 -70 12 -572 29 -852 30
l-193 0 0 730 0 730 193 0 c280 1 782 18 852 30 128 21 294 57 315 69 9 5 30
12 49 16 18 4 44 13 59 21 15 8 34 14 43 14 8 0 19 4 25 8 5 4 36 19 69 32 53
21 98 43 214 106 50 28 221 144 272 184 125 101 271 249 365 370 56 72 144
197 144 205 0 2 19 37 42 78 201 345 302 793 270 1198 -13 171 -54 421 -72
444 -5 6 -11 28 -15 50 -4 22 -11 45 -15 50 -4 6 -13 26 -18 45 -40 133 -135
326 -240 485 -144 218 -389 463 -607 607 -159 105 -352 200 -485 240 -19 5
-39 14 -45 18 -5 4 -28 11 -50 15 -22 4 -44 10 -50 15 -10 8 -69 21 -215 46
-485 85 -1018 -6 -1427 -243 -41 -24 -76 -43 -78 -43 -8 0 -133 -88 -205 -144
-121 -94 -269 -240 -370 -365 -40 -51 -156 -222 -184 -272 -63 -116 -85 -161
-106 -214 -13 -33 -28 -64 -32 -69 -4 -6 -8 -17 -8 -25 0 -9 -6 -28 -14 -43
-8 -15 -17 -41 -21 -59 -4 -19 -11 -40 -16 -49 -12 -21 -48 -187 -69 -315 -12
-70 -29 -572 -30 -852 l0 -193 -730 0 -730 0 0 193 c-1 280 -18 782 -30 852
-21 128 -57 294 -69 315 -5 9 -12 30 -16 49 -4 18 -13 44 -21 59 -8 15 -14 34
-14 42 0 9 -4 20 -8 25 -4 6 -19 37 -32 70 -21 53 -43 98 -106 214 -28 50
-144 221 -184 272 -101 125 -249 271 -370 365 -72 56 -197 144 -205 144 -2 0
-37 19 -78 43 -361 209 -833 309 -1262 266z m375 -1458 c115 -26 295 -132 368
-216 74 -85 135 -193 168 -300 27 -85 27 -314 1 -400 -79 -254 -258 -433 -512
-512 -86 -26 -315 -26 -400 1 -107 33 -215 94 -300 168 -49 42 -134 162 -169
238 -47 102 -59 165 -60 300 -1 141 16 217 75 336 36 74 60 105 139 184 82 82
108 102 190 142 52 25 115 49 140 53 25 4 54 11 65 16 28 12 228 5 295 -10z
m5856 -3 c34 -8 101 -35 150 -59 74 -36 105 -60 184 -139 79 -79 103 -110 139
-184 59 -119 76 -195 75 -336 -1 -135 -13 -198 -60 -300 -35 -76 -120 -196
-169 -238 -85 -74 -193 -135 -300 -168 -85 -27 -314 -27 -400 -1 -254 79 -433
258 -512 512 -26 86 -26 315 1 400 33 107 94 215 168 300 72 84 265 197 359
211 24 4 51 11 59 15 22 13 235 4 306 -13z m-2376 -3638 l0 -730 -730 0 -730
0 0 730 0 730 730 0 730 0 0 -730z m-3450 -2214 c255 -84 429 -259 507 -511
26 -86 26 -315 -1 -400 -33 -107 -94 -215 -168 -300 -42 -49 -162 -134 -238
-169 -102 -47 -165 -59 -300 -60 -141 -1 -217 16 -336 75 -74 36 -105 60 -184
139 -79 79 -103 110 -139 184 -59 119 -76 195 -75 336 1 135 13 198 60 300 35
76 120 196 169 238 105 91 228 153 370 186 51 12 282 -1 335 -18z m5863 -5
c104 -37 201 -93 282 -163 49 -42 134 -162 169 -238 47 -102 59 -165 60 -300
1 -141 -16 -217 -75 -336 -36 -74 -60 -105 -139 -184 -79 -79 -110 -103 -184
-139 -119 -59 -195 -76 -336 -75 -135 1 -198 13 -300 60 -76 35 -196 120 -238
169 -74 85 -135 193 -168 300 -27 85 -27 314 -1 400 79 255 265 440 512 510
33 10 65 19 70 21 6 2 73 2 150 0 107 -3 153 -9 198 -25z"/>
</g>
</svg>
