<?xml version="1.0" encoding="UTF-8" standalone="no"?>
<!DOCTYPE svg PUBLIC "-//W3C//DTD SVG 1.1//EN" "http://www.w3.org/Graphics/SVG/1.1/DTD/svg11.dtd">
<!-- Created with Vectornator (http://vectornator.io/) -->
<svg height="100%" stroke-miterlimit="10" style="fill-rule:nonzero;clip-rule:evenodd;stroke-linecap:round;stroke-linejoin:round;" version="1.1" viewBox="0 0 2560 1440" width="100%" xml:space="preserve" xmlns="http://www.w3.org/2000/svg" xmlns:vectornator="http://vectornator.io" xmlns:xlink="http://www.w3.org/1999/xlink">
<defs/>
<g id="Layer-1" vectornator:layerName="Layer 1">
<path d="M1549.99 470L1549.99 830" fill="none" opacity="1" stroke="#eb493a" stroke-linecap="square" stroke-linejoin="round" stroke-width="70"/>
<path d="M1349.99 470L1349.99 830" fill="none" opacity="1" stroke="#eb493a" stroke-linecap="square" stroke-linejoin="round" stroke-width="70"/>
<path d="M1269.99 750L1629.99 750" fill="none" opacity="1" stroke="#eb493a" stroke-linecap="square" stroke-linejoin="round" stroke-width="70"/>
<path d="M1269.99 550L1629.99 550" fill="none" opacity="1" stroke="#eb493a" stroke-linecap="square" stroke-linejoin="round" stroke-width="70"/>
</g>
<g id="Layer-2" vectornator:layerName="Layer 2">
<path d="M1347.28 826.874C1360.06 880.605 1326.85 934.517 1273.12 947.289C1219.39 960.061 1165.48 926.857 1152.71 873.126C1139.93 819.395 1173.14 765.483 1226.87 752.711C1280.6 739.939 1334.51 773.143 1347.28 826.874Z" fill="none" opacity="1" stroke="#eb493a" stroke-linecap="square" stroke-linejoin="round" stroke-width="70"/>
<path d="M1589.49 770.384C1633.46 736.966 1696.19 745.521 1729.61 789.492C1763.03 833.462 1754.47 896.198 1710.5 929.616C1666.53 963.034 1603.8 954.479 1570.38 910.508C1536.96 866.538 1545.52 803.802 1589.49 770.384Z" fill="none" opacity="1" stroke="#eb493a" stroke-linecap="square" stroke-linejoin="round" stroke-width="70"/>
<path d="M1400.77 430.157C1411.66 376.013 1464.38 340.953 1518.53 351.846C1572.67 362.74 1607.73 415.463 1596.84 469.606C1589.34 506.884 1562.01 535.117 1528.04 545.532" fill="none" opacity="0" stroke="#eb493a" stroke-linecap="round" stroke-linejoin="round" stroke-width="100.203"/>
<path d="M1259.66 549.54C1204.69 554.873 1155.8 514.634 1150.47 459.663C1145.14 404.693 1185.38 355.807 1240.35 350.474C1295.32 345.141 1344.2 385.381 1349.53 440.351C1354.87 495.321 1314.63 544.207 1259.66 549.54Z" fill="none" opacity="1" stroke="#eb493a" stroke-linecap="square" stroke-linejoin="round" stroke-width="70"/>
<path d="M1549.99 450C1549.99 394.772 1594.77 350 1649.99 350C1705.22 350 1749.99 394.772 1749.99 450C1749.99 505.228 1705.22 550 1649.99 550C1594.77 550 1549.99 505.228 1549.99 450Z" fill="none" opacity="1" stroke="#eb493a" stroke-linecap="square" stroke-linejoin="round" stroke-width="70"/>
</g>
<g id="Layer-3" vectornator:layerName="Layer 3"/>
</svg>
