<svg  xmlns="http://www.w3.org/2000/svg" viewBox="292.167 292.167 10220 10220">
  <path fill="#f87171" d="m 2275 10499 c -126 -13 -363 -56 -380 -69 c -5 -5 -28 -11 -50 -15 c -22 -4 -44 -11 -50 -15 c -5 -4 -26 -13 -45 -18 c -133 -40 -326 -135 -485 -240 c -218 -144 -463 -389 -607 -607 c -105 -159 -200 -352 -240 -485 c -5 -19 -14 -39 -18 -45 c -4 -5 -11 -28 -15 -50 c -4 -22 -10 -44 -15 -50 c -8 -10 -21 -69 -46 -215 c -85 -485 6 -1018 243 -1427 c 24 -41 43 -76 43 -78 c 0 -8 88 -133 144 -205 c 94 -121 240 -269 365 -370 c 51 -40 222 -156 272 -184 c 116 -63 161 -85 214 -106 c 33 -13 64 -28 69 -32 c 6 -4 17 -8 25 -8 c 9 0 28 -6 43 -14 c 15 -8 41 -17 59 -21 c 19 -4 40 -11 49 -16 c 21 -12 187 -48 315 -69 c 70 -12 572 -29 853 -30 l 192 0 l 0 -730 l 0 -730 l -192 0 c -281 -1 -783 -18 -853 -30 c -128 -21 -294 -57 -315 -69 c -9 -5 -30 -12 -49 -16 c -18 -4 -44 -13 -59 -21 c -15 -8 -34 -14 -43 -14 c -8 0 -19 -4 -25 -8 c -5 -4 -36 -19 -69 -32 c -53 -21 -98 -43 -214 -106 c -50 -28 -221 -144 -272 -184 c -125 -101 -271 -249 -365 -370 c -56 -72 -144 -197 -144 -205 c 0 -2 -19 -37 -42 -78 c -201 -345 -302 -793 -270 -1198 c 13 -171 54 -421 72 -444 c 5 -5 11 -28 15 -50 c 4 -22 11 -44 15 -50 c 4 -5 13 -26 18 -45 c 40 -133 135 -326 240 -485 c 144 -218 389 -463 607 -607 c 159 -105 352 -200 485 -240 c 19 -5 40 -14 45 -18 c 6 -4 28 -11 50 -15 c 22 -4 45 -10 50 -15 c 10 -8 69 -21 215 -46 c 485 -85 1018 6 1427 243 c 41 24 76 43 78 43 c 8 0 133 88 205 144 c 121 94 269 240 370 365 c 40 51 156 222 184 272 c 63 116 85 161 106 214 c 13 33 28 64 32 69 c 4 6 8 17 8 25 c 0 9 6 28 14 43 c 8 15 17 41 21 59 c 4 19 11 40 16 49 c 12 21 48 187 69 315 c 12 70 29 572 30 853 l 0 192 l 730 0 l 730 0 l 0 -192 c 1 -281 18 -783 30 -853 c 21 -128 57 -294 69 -315 c 5 -9 12 -30 16 -49 c 4 -18 13 -44 21 -59 c 8 -15 14 -34 14 -43 c 0 -8 4 -19 8 -25 c 4 -5 19 -36 32 -69 c 21 -53 43 -98 106 -214 c 28 -50 144 -221 184 -272 c 101 -125 249 -271 370 -365 c 72 -56 197 -144 205 -144 c 2 0 37 -19 78 -42 c 345 -201 793 -302 1198 -270 c 171 13 421 54 444 72 c 6 5 28 11 50 15 c 22 4 45 11 50 15 c 6 4 26 13 45 18 c 133 40 326 135 485 240 c 218 144 463 389 607 607 c 105 159 200 352 240 485 c 5 19 14 40 18 45 c 4 6 11 28 15 50 c 4 22 10 45 15 50 c 8 10 21 69 46 215 c 85 485 -6 1018 -244 1427 c -23 41 -42 76 -42 78 c 0 8 -88 133 -144 205 c -94 121 -240 269 -365 370 c -51 40 -222 156 -272 184 c -116 63 -161 85 -214 106 c -33 13 -64 28 -69 32 c -6 4 -17 8 -25 8 c -9 0 -28 6 -43 14 c -15 8 -41 17 -59 21 c -19 4 -40 11 -49 16 c -21 12 -187 48 -315 69 c -70 12 -572 29 -852 30 l -193 0 l 0 730 l 0 730 l 193 0 c 280 1 782 18 852 30 c 128 21 294 57 315 69 c 9 5 30 12 49 16 c 18 4 44 13 59 21 c 15 8 34 14 43 14 c 8 0 19 4 25 8 c 5 4 36 19 69 32 c 53 21 98 43 214 106 c 50 28 221 144 272 184 c 125 101 271 249 365 370 c 56 72 144 197 144 205 c 0 2 19 37 42 78 c 201 345 302 793 270 1198 c -13 171 -54 421 -72 444 c -5 6 -11 28 -15 50 c -4 22 -11 45 -15 50 c -4 6 -13 26 -18 45 c -40 133 -135 326 -240 485 c -144 218 -389 463 -607 607 c -159 105 -352 200 -485 240 c -19 5 -39 14 -45 18 c -5 4 -28 11 -50 15 c -22 4 -44 10 -50 15 c -10 8 -69 21 -215 46 c -485 85 -1018 -6 -1427 -243 c -41 -24 -76 -43 -78 -43 c -8 0 -133 -88 -205 -144 c -121 -94 -269 -240 -370 -365 c -40 -51 -156 -222 -184 -272 c -63 -116 -85 -161 -106 -214 c -13 -33 -28 -64 -32 -69 c -4 -6 -8 -17 -8 -25 c 0 -9 -6 -28 -14 -43 c -8 -15 -17 -41 -21 -59 c -4 -19 -11 -40 -16 -49 c -12 -21 -48 -187 -69 -315 c -12 -70 -29 -572 -30 -852 l 0 -193 l -730 0 l -730 0 l 0 193 c -1 280 -18 782 -30 852 c -21 128 -57 294 -69 315 c -5 9 -12 30 -16 49 c -4 18 -13 44 -21 59 c -8 15 -14 34 -14 42 c 0 9 -4 20 -8 25 c -4 6 -19 37 -32 70 c -21 53 -43 98 -106 214 c -28 50 -144 221 -184 272 c -101 125 -249 271 -370 365 c -72 56 -197 144 -205 144 c -2 0 -37 19 -78 43 c -361 209 -833 309 -1262 266 z m 375 -1458 c 115 -26 295 -132 368 -216 c 74 -85 135 -193 168 -300 c 27 -85 27 -314 1 -400 c -79 -254 -258 -433 -512 -512 c -86 -26 -315 -26 -400 1 c -107 33 -215 94 -300 168 c -49 42 -134 162 -169 238 c -47 102 -59 165 -60 300 c -1 141 16 217 75 336 c 36 74 60 105 139 184 c 82 82 108 102 190 142 c 52 25 115 49 140 53 c 25 4 54 11 65 16 c 28 12 228 5 295 -10 z m 5856 -3 c 34 -8 101 -35 150 -59 c 74 -36 105 -60 184 -139 c 79 -79 103 -110 139 -184 c 59 -119 76 -195 75 -336 c -1 -135 -13 -198 -60 -300 c -35 -76 -120 -196 -169 -238 c -85 -74 -193 -135 -300 -168 c -85 -27 -314 -27 -400 -1 c -254 79 -433 258 -512 512 c -26 86 -26 315 1 400 c 33 107 94 215 168 300 c 72 84 265 197 359 211 c 24 4 51 11 59 15 c 22 13 235 4 306 -13 z m -2376 -3638 l 0 -730 l -730 0 l -730 0 l 0 730 l 0 730 l 730 0 l 730 0 l 0 -730 z m -3450 -2214 c 255 -84 429 -259 507 -511 c 26 -86 26 -315 -1 -400 c -33 -107 -94 -215 -168 -300 c -42 -49 -162 -134 -238 -169 c -102 -47 -165 -59 -300 -60 c -141 -1 -217 16 -336 75 c -74 36 -105 60 -184 139 c -79 79 -103 110 -139 184 c -59 119 -76 195 -75 336 c 1 135 13 198 60 300 c 35 76 120 196 169 238 c 105 91 228 153 370 186 c 51 12 282 -1 335 -18 z m 5863 -5 c 104 -37 201 -93 282 -163 c 49 -42 134 -162 169 -238 c 47 -102 59 -165 60 -300 c 1 -141 -16 -217 -75 -336 c -36 -74 -60 -105 -139 -184 c -79 -79 -110 -103 -184 -139 c -119 -59 -195 -76 -336 -75 c -135 1 -198 13 -300 60 c -76 35 -196 120 -238 169 c -74 85 -135 193 -168 300 c -27 85 -27 314 -1 400 c 79 255 265 440 512 510 c 33 10 65 19 70 21 c 6 2 73 2 150 0 c 107 -3 153 -9 198 -25 z" />
</svg>